<svg height="800" viewBox="0 0 1024 1024" width="800" xmlns="http://www.w3.org/2000/svg"><path d="m512 960c-92.8 0-160-200-160-448s67.2-448 160-448 160 200 160 448-67.2 448-160 448zm0-32c65.6 0 128-185.6 128-416s-62.4-416-128-416-128 185.6-128 416 62.4 416 128 416z"/><path d="m124.8 736c-48-80 92.8-238.4 307.2-363.2s420.8-164.8 467.2-84.8-92.8 238.4-307.2 363.2-420.8 164.8-467.2 84.8zm27.2-16c33.6 57.6 225.6 17.6 424-97.6s329.6-260.8 296-318.4-225.6-17.6-424 97.6-329.6 260.8-296 318.4z"/><path d="m899.2 736c-46.4 80-254.4 38.4-467.2-84.8s-355.2-283.2-307.2-363.2 254.4-38.4 467.2 84.8 355.2 283.2 307.2 363.2zm-27.2-16c33.6-57.6-97.6-203.2-296-318.4s-392-155.2-424-97.6 97.6 203.2 296 318.4 392 155.2 424 97.6z"/><path d="m512 592c-44.8 0-80-35.2-80-80s35.2-80 80-80 80 35.2 80 80-35.2 80-80 80zm-240-280c-27.2 0-48-20.8-48-48s20.8-48 48-48 48 20.8 48 48-20.8 48-48 48zm144 568c-27.2 0-48-20.8-48-48s20.8-48 48-48 48 20.8 48 48-20.8 48-48 48zm448-432c-27.2 0-48-20.8-48-48s20.8-48 48-48 48 20.8 48 48-20.8 48-48 48z"/></svg>