<?xml version="1.0" encoding="UTF-8" standalone="no"?>
<!DOCTYPE svg PUBLIC "-//W3C//DTD SVG 1.1//EN" "http://www.w3.org/Graphics/SVG/1.1/DTD/svg11.dtd">
<svg width="100%" height="100%" viewBox="0 0 800 800" version="1.1" xmlns="http://www.w3.org/2000/svg" xmlns:xlink="http://www.w3.org/1999/xlink" xml:space="preserve" xmlns:serif="http://www.serif.com/" style="fill-rule:evenodd;clip-rule:evenodd;stroke-linejoin:round;stroke-miterlimit:2;">
    <g transform="matrix(1.5625,0,0,1.5625,0,0)">
        <path d="M256.115,323.868C232.637,323.868 209.774,311.694 197.215,289.941C178.456,257.45 189.567,215.974 222.061,197.214C254.474,178.5 296.071,189.646 314.788,222.06C333.547,254.551 322.436,296.027 289.942,314.787C279.28,320.942 267.623,323.868 256.115,323.868Z" style="fill:rgb(255,218,121);fill-rule:nonzero;"/>
    </g>
    <g transform="matrix(1.5625,0,0,1.5625,0,0)">
        <path d="M188.921,372.186C69.784,303.401 -5.26,196.514 34.298,128C81.607,46.06 233.063,87.842 323.08,139.814C442.218,208.599 517.261,315.487 477.703,384C430.637,465.523 279.918,424.723 188.921,372.186ZM68.941,148.001C57.902,167.122 64.726,197.459 87.666,231.231C206.691,406.467 542.463,454.677 424.337,280.769C335.633,150.175 107.875,80.565 68.941,148.001Z" style="fill:rgb(44,62,80);fill-rule:nonzero;"/>
    </g>
    <g transform="matrix(1.5625,0,0,1.5625,0,0)">
        <path d="M323.08,139.814C300.975,127.051 278.399,116.201 255.996,107.459L255.996,150.689C318.365,177.765 386.339,224.827 424.335,280.768C501.216,393.952 382.196,416.098 255.996,361.306L255.996,404.537C514.984,505.601 585.043,291.06 323.08,139.814Z" style="fill:rgb(34,49,63);fill-rule:nonzero;"/>
    </g>
    <g transform="matrix(1.5625,0,0,1.5625,0,0)">
        <path d="M256.001,512C161.385,512 121.842,359.943 121.842,255.999C121.842,118.409 176.901,0 256.001,0C350.617,0 390.16,152.057 390.16,256.001C390.161,393.504 335.144,512 256.001,512ZM256.001,40.002C233.921,40.002 211.062,61.08 193.284,97.834C123.523,242.047 179.363,472 256.001,472C278.081,472 300.94,450.922 318.718,414.168C360.612,327.563 360.76,184.746 318.718,97.834C300.939,61.08 278.081,40.002 256.001,40.002Z" style="fill:rgb(106,130,161);fill-rule:nonzero;"/>
    </g>
    <g transform="matrix(1.5625,0,0,1.5625,0,0)">
        <path d="M256.001,0L255.997,0L255.997,40.002L256.001,40.002C278.081,40.002 300.94,61.08 318.718,97.834C387.565,240.155 333.719,472 256.001,472L255.997,472L255.997,512.002L256.001,512.002C350.617,512.002 390.16,359.945 390.16,256.001C390.161,118.396 335.094,0 256.001,0Z" style="fill:rgb(54,73,94);fill-rule:nonzero;"/>
        <path d="M34.298,384C-13.012,302.06 98.904,191.786 188.921,139.815C308.184,70.958 438.183,59.548 477.703,128C525.013,209.94 413.097,320.214 323.08,372.185C205.638,439.991 74.32,453.319 34.298,384ZM208.922,174.457C156.889,204.498 113.826,242.255 87.666,280.77C-30.258,454.38 304.992,406.94 424.337,231.232C472.26,160.678 446.783,116.37 361.62,122.603C315.183,126 260.954,144.416 208.922,174.457Z" style="fill:rgb(54,73,94);fill-rule:nonzero;"/>
    </g>
    <g transform="matrix(1.5625,0,0,1.5625,0,0)">
        <path d="M477.703,128C439.483,61.801 329.932,78.611 255.996,107.462L255.996,150.693C344.005,112.482 423.111,113.446 443.06,148.001C470.229,195.06 389.047,303.551 255.996,361.31L255.996,404.54C405.835,346.074 525.564,210.896 477.703,128Z" style="fill:rgb(44,62,80);fill-rule:nonzero;"/>
    </g>
    <g transform="matrix(1.5625,0,0,1.5625,0,0)">
        <path d="M314.788,222.06C302.247,200.342 279.436,188.191 255.997,188.152L255.997,323.863C256.037,323.863 256.076,323.867 256.116,323.867C267.623,323.867 279.281,320.942 289.943,314.787C322.432,296.029 333.549,254.554 314.788,222.06Z" style="fill:rgb(255,209,85);fill-rule:nonzero;"/>
    </g>
    <g transform="matrix(1,0,0,1,318.735,318.131)">
        <path d="M43.232,11.344L85.617,27.238L77.746,48.227L35.361,32.333L43.232,11.344Z" style="fill:white;"/>
        <path d="M111.192,6.154L125.192,49.202L103.875,56.135L89.875,13.087L111.192,6.154Z" style="fill:white;"/>
        <path d="M157.61,56.069L132.682,93.854L113.971,81.51L138.898,43.725L157.61,56.069Z" style="fill:white;"/>
        <path d="M147.533,123.467L102.449,127.537L100.434,105.211L145.517,101.141L147.533,123.467Z" style="fill:white;"/>
        <path d="M88.549,157.611L57.258,124.901L73.456,109.406L104.747,142.116L88.549,157.611Z" style="fill:white;"/>
        <path d="M25.072,132.802L31.137,87.943L53.351,90.947L47.287,135.805L25.072,132.802Z" style="fill:white;"/>
        <path d="M4.908,67.683L43.761,44.455L55.264,63.695L16.411,86.923L4.908,67.683Z" style="fill:white;"/>
    </g>
</svg>
